# xmcd
#
# Track frame offsets: 
#        150
#        22387
#        44262
#        63640
#        83980
#        106710
#        131887
#        157730
#        174040
#        190527
#
# Disc length: 2807 seconds
#
# Revision: 3
# Processed by: cddbd v1.5.1PL0 Copyright (c) Steve Scherf et al.
# Submitted via: ExactAudioCopy v0.95b2
#
DISCID=790af50a
DTITLE=Eric Gable - Process of Elimination
DYEAR=1994
DGENRE=
TTITLE0=Process of Elimination
TTITLE1=Don't Wanna Hurt Nobody
TTITLE2=Driving Me Crazy
TTITLE3=Call Me
TTITLE4=I'll Be Around
TTITLE5=I'm Not the One
TTITLE6=Try Again
TTITLE7=Let Me Rock
TTITLE8=Don't Stop
TTITLE9=This Time
EXTD=
EXTT0=
EXTT1=
EXTT2=
EXTT3=
EXTT4=
EXTT5=
EXTT6=
EXTT7=
EXTT8=
EXTT9=
PLAYORDER=
